<svg width="64" height="64" viewBox="0 0 64 64" fill="none" xmlns="http://www.w3.org/2000/svg">
    <path d="M26.7727 10.5133C26.7727 7.64359 29.1167 5.30888 31.9979 5.30888C33.3938 5.30888 34.7063 5.85032 35.6929 6.83302C36.6795 7.81572 37.2231 9.12296 37.2231 10.5133V15.2089L40.5451 13.2978V10.5133C40.5451 8.23885 39.6559 6.10079 38.0422 4.49298C36.428 2.88517 34.282 2 31.9984 2C27.2853 2 23.4512 5.81888 23.4512 10.5133V29.1388L37.2236 37.0595V53.4872C37.2236 56.3569 34.8796 58.6917 31.9984 58.6917C30.602 58.6917 29.2895 58.1502 28.3029 57.1675C27.3163 56.1848 26.7727 54.8776 26.7727 53.4872V48.7927L23.4507 50.7022V53.4872C23.4507 55.7622 24.3405 57.9003 25.9552 59.507C27.5694 61.1148 29.7154 62 31.9979 62C36.711 62 40.5451 58.1811 40.5451 53.4867V34.8639L26.7727 26.9437V10.5133Z" fill="white"/>
    <path d="M54.956 35.3721L42.3318 28.1121L51.5751 22.7963C52.1256 22.4787 52.468 21.8887 52.468 21.2567C52.468 20.9465 52.3851 20.6396 52.2278 20.3689C51.9892 19.9569 51.6045 19.6627 51.1444 19.5402C50.6842 19.4171 50.2032 19.4794 49.7902 19.7171L35.4399 27.9699L53.2947 38.237C54.5033 38.9314 55.3685 40.0548 55.7296 41.3993C56.0908 42.7428 55.9046 44.1455 55.2047 45.3493C54.2754 46.9523 52.5413 47.9484 50.6794 47.9484C49.7666 47.9484 48.8656 47.708 48.0732 47.2534L43.9872 44.9038V48.7248L46.4152 50.1195C47.711 50.8639 49.1856 51.2572 50.6799 51.2572C53.7238 51.2572 56.56 49.6286 58.0816 47.0067C58.2245 46.761 58.3556 46.5079 58.4717 46.2532V46.2526C58.5878 45.9989 58.6921 45.7373 58.782 45.4746C58.8275 45.3424 58.8687 45.2102 58.9072 45.077C59.1373 44.2782 59.247 43.4516 59.233 42.6208C59.2218 41.9232 59.1234 41.224 58.9404 40.543C58.3492 38.3447 56.934 36.5082 54.956 35.3721Z" fill="white"/>
    <path d="M33.7827 10.5141C33.7827 10.0393 33.597 9.59272 33.2599 9.25699C32.9229 8.92125 32.4745 8.73633 31.9978 8.73633C31.0133 8.73633 30.2129 9.5341 30.2129 10.5141V24.9652L31.9978 25.9906L48.0671 16.7509C48.8632 16.2942 49.7658 16.0522 50.6775 16.0522C52.5405 16.0522 54.2756 17.0504 55.205 18.6576C55.6635 19.4464 55.9059 20.3454 55.9059 21.2572C55.9059 23.1091 54.9065 24.8347 53.2976 25.7619L49.2099 28.1132L52.532 30.0231L54.9616 28.6264C57.5929 27.1081 59.2274 24.2842 59.2274 21.2577C59.2274 19.7645 58.8315 18.2937 58.0819 17.004C56.5603 14.3767 53.723 12.7444 50.6765 12.7444C49.1821 12.7444 47.7049 13.1393 46.4053 13.8859L33.7816 21.1448V10.5141H33.7827Z" fill="white"/>
    <path d="M5.84736 25.4016C5.95116 25.5876 6.06887 25.7789 6.20798 25.9862C6.54505 26.4904 6.93295 26.9551 7.36098 27.367C7.86392 27.8514 8.42945 28.2756 9.0426 28.6279L21.6663 35.8878L12.4235 41.2037C11.873 41.5213 11.5311 42.1112 11.5311 42.7433C11.5311 43.0534 11.614 43.3604 11.7713 43.6311C12.0891 44.1795 12.683 44.5205 13.3208 44.5205C13.6316 44.5205 13.9387 44.4385 14.2089 44.2834L28.557 36.0317L10.7039 25.7629C9.49418 25.0669 8.62902 23.9436 8.26841 22.6006C7.90886 21.2566 8.09612 19.854 8.79488 18.6506C9.72531 17.0471 11.4588 16.0511 13.3192 16.0511C14.233 16.0511 15.1351 16.2919 15.9275 16.7481L20.0114 19.0977V15.2767L17.5866 13.88C16.2908 13.1355 14.8151 12.7422 13.3192 12.7422C10.2748 12.7422 7.4391 14.3713 5.91906 16.9927C4.77461 18.9624 4.46964 21.2577 5.06032 23.4559C5.24331 24.1381 5.50815 24.7925 5.84736 25.4016Z" fill="white"/>
    <path d="M13.3193 19.4785C12.6826 19.4785 12.0898 19.819 11.772 20.368C11.5333 20.7794 11.4691 21.2579 11.5927 21.7162C11.7158 22.1751 12.0111 22.5588 12.4247 22.7965L20.0121 27.1605V23.0539L14.2091 19.7162C13.9373 19.5606 13.6296 19.4785 13.3193 19.4785Z" fill="white"/>
    <path d="M30.2143 53.487C30.2143 53.9618 30.4 54.4084 30.7371 54.7441C31.0741 55.0799 31.5225 55.2648 31.9998 55.2648C32.9837 55.2648 33.7846 54.467 33.7846 53.487V39.037L32.0003 38.01L31.9965 38.0116L15.9315 47.2513C15.137 47.7075 14.2344 47.9484 13.3211 47.9484C11.4581 47.9484 9.72242 46.9513 8.79199 45.3456C8.33346 44.5532 8.09109 43.6536 8.09109 42.7439C8.09109 40.8931 9.09107 39.167 10.701 38.2397L14.7871 35.8896L11.465 33.9785L9.0365 35.3748C6.40412 36.8936 4.76904 39.7175 4.76904 42.7439C4.76904 44.2361 5.16497 45.7069 5.91456 46.9982C7.43727 49.6255 10.2751 51.2573 13.3211 51.2573C14.816 51.2573 16.2927 50.8629 17.5923 50.1163L30.2143 42.8569V53.487Z" fill="white"/>
    <path d="M50.68 44.5217C51.3162 44.5217 51.909 44.1811 52.2274 43.6322C52.466 43.2208 52.5297 42.7422 52.4066 42.2839C52.2835 41.8251 51.9882 41.4414 51.5752 41.2043L43.9878 36.8418V40.9463L49.7908 44.2834C50.061 44.4391 50.3686 44.5217 50.68 44.5217Z" fill="white"/>
</svg>
