<svg width="64" height="64" viewBox="0 0 64 64" fill="none" xmlns="http://www.w3.org/2000/svg">
    <g clip-path="url(#clip0_436:853)">
        <path d="M55.2173 0.144839C54.5178 -0.149911 53.7122 0.0148392 53.1739 0.55134L51.6212 2.10409C50.2049 3.51797 48.8124 3.7521 46.9997 3.7521C40.4292 3.7521 34.7858 7.56373 32.0001 13.0582C29.2208 7.57598 23.7986 3.7521 16.3579 3.7521C14.8546 3.7521 13.443 3.1661 12.3791 2.10409L10.8266 0.551215C10.2882 0.0147142 9.48811 -0.146411 8.78323 0.144714C8.08198 0.433965 7.62598 1.11884 7.62598 1.87684V5.62673C7.62598 14.9319 15.1954 22.5013 24.5005 22.5013H30.1253V30.3144C24.2651 30.6199 18.8756 32.3637 18.8756 35.8759C18.8756 39.7613 25.4671 41.5008 32.0003 41.5008C38.5334 41.5008 45.1249 39.7613 45.1249 35.8759C45.1249 32.3639 39.7353 30.62 33.8753 30.3145V22.5013H39.5002C48.8053 22.5013 56.3747 14.9319 56.3747 5.62673V1.87684C56.3744 1.11884 55.9186 0.43409 55.2173 0.144839Z" fill="white"/>
        <path d="M32.0001 52.7497C26.2695 52.7497 21.7949 51.6291 18.8755 49.6855V50.8748C18.8755 54.7602 25.467 56.4997 32.0001 56.4997C38.5333 56.4997 45.1248 54.7602 45.1248 50.8748V49.6855C42.2055 51.6291 37.7308 52.7497 32.0001 52.7497Z" fill="white"/>
        <path d="M31.9998 60.2498C26.2691 60.2498 21.7945 59.1292 18.8751 57.1857C18.8751 57.8113 18.8046 58.6001 19.0401 59.1313C19.8645 62.4699 25.9219 63.9997 31.9998 63.9997C36.507 63.9997 45.1244 62.8576 45.1244 58.3748V57.1855C42.2052 59.1292 37.7304 60.2498 31.9998 60.2498Z" fill="white"/>
        <path d="M32.0001 45.2497C26.2695 45.2497 21.7949 44.1291 18.8755 42.1855V43.3748C18.8755 47.2602 25.467 48.9997 32.0001 48.9997C38.5333 48.9997 45.1248 47.2602 45.1248 43.3748V42.1855C42.2055 44.1292 37.7308 45.2497 32.0001 45.2497Z" fill="white"/>
        <path d="M13.2506 34C6.71774 34 0.000976562 35.7395 0.000976562 39.6249C0.000976562 43.5103 6.71749 45.2498 13.2506 45.2498C13.8783 45.2498 14.5029 45.2189 15.1256 45.1864V34.0635C14.5029 34.0309 13.8783 34 13.2506 34Z" fill="white"/>
        <path d="M50.749 34C50.1214 33.9999 49.4968 34.0309 48.874 34.0634V45.1863C49.4968 45.2188 50.1214 45.2496 50.749 45.2496C57.282 45.2496 63.9987 43.5101 63.9987 39.6248C63.9987 35.7394 57.282 34 50.749 34Z" fill="white"/>
        <path d="M13.2506 48.9997C7.51999 48.9997 2.92036 47.8791 0.000976562 45.9355V47.1248C0.000976562 51.0102 6.71749 52.7497 13.2506 52.7497C13.8783 52.7497 14.5029 52.7188 15.1256 52.6863V48.9048C14.4976 48.9342 13.9125 48.9997 13.2506 48.9997Z" fill="white"/>
        <path d="M13.2506 56.4997C7.51999 56.4997 2.92036 55.3791 0.000976562 53.4355V54.6248C0.000976562 58.5101 6.71761 60.2496 13.2506 60.2496C13.8783 60.2496 14.5029 60.2187 15.1256 60.1862V56.4047C14.4976 56.4342 13.9125 56.4997 13.2506 56.4997Z" fill="white"/>
        <path d="M50.749 48.9998C50.0872 48.9998 49.5021 48.9344 48.874 48.9048V52.6863C49.4968 52.7188 50.1214 52.7497 50.749 52.7497C57.282 52.7497 63.9987 51.0102 63.9987 47.1248V45.9355C61.0793 47.8793 56.4795 48.9998 50.749 48.9998Z" fill="white"/>
        <path d="M50.749 56.4998C50.0872 56.4998 49.5021 56.4344 48.874 56.4048V60.1863C49.4968 60.2188 50.1214 60.2497 50.749 60.2497C57.282 60.2497 63.9987 58.5102 63.9987 54.6248V53.4355C61.0793 55.3792 56.4795 56.4998 50.749 56.4998Z" fill="white"/>
    </g>
    <defs>
        <clipPath id="clip0_436:853">
            <rect width="64" height="64" fill="white"/>
        </clipPath>
    </defs>
</svg>
