<svg width="64" height="64" viewBox="0 0 64 64" fill="none" xmlns="http://www.w3.org/2000/svg">
    <g clip-path="url(#clip0_436:884)">
        <path d="M31.9999 12.6348C25.9693 12.6348 21.0623 17.5418 21.0623 23.5724C21.0623 29.603 25.9693 34.51 31.9999 34.51C38.0305 34.51 42.9375 29.603 42.9375 23.5724C42.9375 17.5418 38.0305 12.6348 31.9999 12.6348Z" fill="white"/>
        <path d="M29.5423 49.9794L29.4836 49.9256L28.09 48.6645L24.8103 45.6973L21.2443 46.081L19.0621 46.3148L18.5447 46.371L16.8786 46.5498L11.6316 57.6999L19.7571 57.8074L25.0165 63.9993L30.996 51.2943L29.5423 49.9794Z" fill="white"/>
        <path d="M47.1213 46.5498L45.4552 46.371L44.9378 46.316L42.7555 46.081L39.1895 45.6973L35.9099 48.6645L34.5163 49.9256L34.4575 49.9794L33.0039 51.2943L38.9834 63.9993L44.2428 57.8074L52.3683 57.6999L47.1213 46.5498Z" fill="white"/>
        <path d="M51.1558 23.5728L54.4192 16.2885L47.4974 12.3138L45.8563 4.502L37.9196 5.35437L32.0002 0L26.0808 5.3545L18.1441 4.50212L16.5029 12.3138L9.58105 16.2884L12.8444 23.5726L9.58105 30.8569L16.5029 34.8315L18.1441 42.6432L18.7491 42.5783L20.9326 42.3433L23.1148 42.1095L23.6998 42.047H23.7011L26.0808 41.7907L27.8707 43.4094L29.7593 45.118L30.3481 45.6505L31.2129 46.4329L32.0003 47.1452L32.7877 46.4329L33.6526 45.6505L34.2413 45.118L35.7099 43.7906L35.7112 43.7894L37.9197 41.7909L41.7768 42.2046H41.7781L42.1706 42.2471L43.0679 42.3434H43.0692L45.2514 42.5784L45.8564 42.6434L47.4976 34.8316L54.4194 30.857L51.1558 23.5728ZM32.0002 38.26C23.9022 38.26 17.3128 31.6719 17.3128 23.5726C17.3128 15.4746 23.9022 8.88525 32.0002 8.88525C40.0982 8.88525 46.6876 15.4746 46.6876 23.5726C46.6876 31.6719 40.0982 38.26 32.0002 38.26Z" fill="white"/>
    </g>
    <defs>
        <clipPath id="clip0_436:884">
            <rect width="64" height="64" fill="white"/>
        </clipPath>
    </defs>
</svg>
