<svg width="16" height="16" viewBox="0 0 16 16" fill="none" xmlns="http://www.w3.org/2000/svg">
<path d="M1.82547 0.313156C1.40847 -0.104385 0.730563 -0.104385 0.313557 0.313156C-0.104519 0.730697 -0.104519 1.40774 0.313557 1.82528L6.48848 7.99987L0.313557 14.1744C-0.104519 14.592 -0.104519 15.269 0.313557 15.6866C0.731632 16.1041 1.40847 16.1041 1.82547 15.6866L8.0004 9.51199L14.1753 15.6866C14.5923 16.1041 15.2692 16.1041 15.6872 15.6866C16.1043 15.269 16.1043 14.592 15.6872 14.1744L9.51232 7.99987L15.6872 1.82528C16.1043 1.40774 16.1043 0.730697 15.6872 0.313156C15.2692 -0.104385 14.5923 -0.104385 14.1753 0.313156L8.0004 6.48774L1.82547 0.313156Z" fill="white"/>
</svg>
