<svg width="48" height="48" viewBox="0 0 48 48" fill="none" xmlns="http://www.w3.org/2000/svg">
    <g clip-path="url(#clip0_418:364)">
        <path d="M31.6903 34.7295C31.7891 34.7374 31.8885 34.7427 31.9893 34.7427C34.2034 34.7427 35.9983 32.8046 35.9983 30.4137C35.9983 29.4728 35.7194 28.6027 35.2471 27.8924C36.337 27.1186 37.057 25.7872 37.057 24.2734C37.057 22.4485 36.0109 20.8886 34.5314 20.2517C34.6405 19.858 34.6999 19.441 34.6999 19.009C34.6999 16.7005 33.0265 14.8146 30.9181 14.6873C30.6862 12.8574 29.2337 11.4473 27.4754 11.4473C26.7061 11.4473 25.9875 11.7175 25.4028 12.1744V35.3519C26.1633 36.0985 27.1735 36.5538 28.2824 36.5538C29.6728 36.554 30.9078 35.838 31.6903 34.7295Z" fill="#316BFF"/>
        <path d="M22.5976 12.1882C22.0189 11.7231 21.3019 11.4473 20.525 11.4473C18.7667 11.4473 17.3142 12.8574 17.0822 14.6873C14.9739 14.8146 13.3004 16.7005 13.3004 19.009C13.3004 19.441 13.3599 19.858 13.4689 20.2517C11.9894 20.8886 10.9434 22.4486 10.9434 24.2734C10.9434 25.7871 11.6634 27.1186 12.7532 27.8924C12.2811 28.6026 12.0021 29.4727 12.0021 30.4137C12.0021 32.8046 13.7969 34.7427 16.011 34.7427C16.1118 34.7427 16.2113 34.7374 16.3101 34.7295C17.0925 35.838 18.3276 36.5539 19.7179 36.5539C20.8268 36.5539 21.837 36.0986 22.5975 35.3519V12.1882H22.5976Z" fill="#316BFF"/>
        <path d="M5.04099 18.8752C6.85402 12.2089 12.1142 6.94366 18.7869 5.10944C18.5348 4.47334 18.3946 3.78119 18.3946 3.05659C18.3946 2.79616 18.4141 2.54022 18.4486 2.28906C14.577 3.26744 11.0261 5.27003 8.12818 8.16109C5.23721 11.0452 3.23274 14.5777 2.24902 18.4296C2.42752 18.4125 2.60827 18.403 2.79127 18.403C3.59115 18.4031 4.35184 18.5724 5.04099 18.8752Z" fill="#316BFF"/>
        <path d="M5.04099 29.125C4.35184 29.4278 3.59115 29.5971 2.79127 29.5971C2.60827 29.5971 2.42752 29.5877 2.24902 29.5705C3.23274 33.4225 5.23731 36.955 8.12827 39.8391C11.0262 42.7302 14.5771 44.7327 18.4487 45.7111C18.4141 45.46 18.3947 45.2041 18.3947 44.9435C18.3947 44.2189 18.5349 43.5268 18.787 42.8907C12.1142 41.0565 6.85402 35.7913 5.04099 29.125Z" fill="#316BFF"/>
        <path d="M42.9583 18.8752C43.6475 18.5724 44.4082 18.403 45.2081 18.403C45.391 18.403 45.5718 18.4125 45.7503 18.4296C44.7666 14.5776 42.762 11.0452 39.8711 8.16109C36.9732 5.26994 33.4224 3.26744 29.5507 2.28906C29.5853 2.54022 29.6047 2.79616 29.6047 3.05659C29.6047 3.78119 29.4645 4.47334 29.2124 5.10944C35.8851 6.94366 41.1453 12.2089 42.9583 18.8752Z" fill="#316BFF"/>
        <path d="M42.9583 29.125C41.1453 35.7913 35.885 41.0566 29.2124 42.8908C29.4645 43.5269 29.6047 44.219 29.6047 44.9436C29.6047 45.2041 29.5852 45.46 29.5507 45.7112C33.4223 44.7328 36.9731 42.7303 39.8711 39.8392C42.7621 36.9551 44.7666 33.4226 45.7504 29.5706C45.5718 29.5878 45.3911 29.5972 45.2081 29.5972C44.4081 29.5971 43.6475 29.4278 42.9583 29.125Z" fill="#316BFF"/>
        <path d="M24.0003 5.84825C25.5418 5.84825 26.7915 4.59856 26.7915 3.05694C26.7915 1.51541 25.5418 0.265625 24.0003 0.265625C22.4587 0.265625 21.209 1.51531 21.209 3.05694C21.209 4.59856 22.4588 5.84825 24.0003 5.84825Z" fill="#316BFF"/>
        <path d="M45.2088 21.209C43.6672 21.209 42.4175 22.4587 42.4175 24.0003C42.4175 25.5418 43.6672 26.7916 45.2088 26.7916C46.7503 26.7915 48 25.5418 48 24.0002C48 22.4586 46.7503 21.209 45.2088 21.209Z" fill="#316BFF"/>
        <path d="M5.58253 24.0003C5.58253 22.4587 4.33284 21.209 2.79131 21.209C1.24969 21.2091 0 22.4587 0 24.0003C0 25.5418 1.24969 26.7916 2.79131 26.7916C4.33284 26.7916 5.58253 25.5419 5.58253 24.0003Z" fill="#316BFF"/>
        <path d="M24.0003 42.1523C22.4587 42.1523 21.209 43.402 21.209 44.9437C21.209 46.4852 22.4587 47.735 24.0003 47.735C25.5418 47.735 26.7915 46.4853 26.7915 44.9437C26.7916 43.402 25.5418 42.1523 24.0003 42.1523Z" fill="#316BFF"/>
    </g>
    <defs>
        <clipPath id="clip0_418:364">
            <rect width="48" height="48" fill="white"/>
        </clipPath>
    </defs>
</svg>
