<svg width="48" height="48" viewBox="0 0 48 48" fill="none" xmlns="http://www.w3.org/2000/svg">
    <g clip-path="url(#clip0_418:344)">
        <path d="M30.6422 3.55566L24.7441 0.185344C24.3118 -0.0617812 23.7811 -0.0617812 23.3487 0.185344L17.4683 3.54562L24.0481 7.28934L30.6422 3.55566Z" fill="#316BFF"/>
        <path d="M16.0781 43.4337C16.0781 43.9383 16.3485 44.4043 16.7867 44.6546L22.6406 47.9997V40.5015L16.0781 36.7676V43.4337Z" fill="#316BFF"/>
        <path d="M25.4531 47.9992L31.3071 44.6541C31.7453 44.4037 32.0156 43.9377 32.0156 43.4332V36.7871L25.4531 40.5029V47.9992Z" fill="#316BFF"/>
        <path d="M0.046875 28.0449C0.046875 28.5496 0.31725 29.0155 0.755437 29.2658L6.60938 32.611V25.1128L0.046875 21.3789V28.0449Z" fill="#316BFF"/>
        <path d="M41.3906 25.1142V32.6105L47.2446 29.2654C47.6827 29.0151 47.9531 28.549 47.9531 28.0445V21.3984L41.3906 25.1142Z" fill="#316BFF"/>
        <path d="M22.6402 17.2223V9.72411L16.0777 5.99023V12.6562C16.0777 13.1609 16.348 13.6268 16.7862 13.8771L17.2904 14.1004L11.7962 17.336L8.71286 15.5742C8.28057 15.3271 7.74986 15.3271 7.31748 15.5742L1.43701 18.9345L8.01686 22.6782L19.6954 15.5396L22.6402 17.2223Z" fill="#316BFF"/>
        <path d="M40.9317 15.5742C40.4994 15.3271 39.9687 15.3271 39.5363 15.5742L36.453 17.336L31.1133 14.0407L31.4628 13.8771C31.901 13.6268 32.1714 13.1608 32.1714 12.6562V5.99023L25.6089 9.72411V17.2223L28.7388 15.4339L40.2322 22.6782L46.812 18.9345L40.9317 15.5742Z" fill="#316BFF"/>
        <path d="M32.0157 28.2629L26.4791 31.954L24.7447 30.9629C24.3124 30.7157 23.7817 30.7157 23.3493 30.9629L21.6148 31.954L15.9844 28.2002V21.399L9.42188 25.1147V32.611L13.7878 30.1162L18.8846 33.5141L17.4688 34.3232L24.0487 38.0669L30.6428 34.3332L29.2093 33.5141L34.2628 30.145L38.5783 32.611V25.1128L32.0158 21.3789V28.2629H32.0157Z" fill="#316BFF"/>
    </g>
    <defs>
        <clipPath id="clip0_418:344">
            <rect width="48" height="48" fill="white"/>
        </clipPath>
    </defs>
</svg>
