<svg width="48" height="48" viewBox="0 0 48 48" fill="none" xmlns="http://www.w3.org/2000/svg">
    <g clip-path="url(#clip0_448:2417)">
        <g clip-path="url(#clip1_448:2417)">
            <path d="M47.0617 13.5323L24.4679 5.56063C24.1652 5.45375 23.8349 5.45375 23.5322 5.56063L0.938439 13.5323C0.376689 13.7305 0.000751124 14.2611 1.12378e-06 14.8568C-0.000748876 15.4525 0.37397 15.9839 0.935251 16.1834L23.529 24.2157C23.6813 24.2698 23.8407 24.2969 24 24.2969C24.1594 24.2969 24.3187 24.2698 24.471 24.2157L47.0648 16.1834C47.626 15.9839 48.0007 15.4525 48 14.8568C47.9992 14.2611 47.6233 13.7305 47.0617 13.5323Z" fill="#316BFF"/>
            <path d="M44.6226 32.3034V20.0371L41.8101 21.037V32.3034C40.9629 32.791 40.3921 33.7045 40.3921 34.7522C40.3921 35.7998 40.9629 36.7135 41.8101 37.201V44.1119C41.8101 44.8885 42.4397 45.5182 43.2163 45.5182C43.9929 45.5182 44.6226 44.8885 44.6226 44.1119V37.2011C45.4697 36.7136 46.0405 35.7999 46.0405 34.7523C46.0405 33.7046 45.4698 32.791 44.6226 32.3034Z" fill="#316BFF"/>
            <path d="M23.9999 27.1108C23.5172 27.1108 23.0418 27.0288 22.5868 26.867L9.88525 22.3516V28.5398C9.88525 30.0538 11.4647 31.3341 14.5796 32.3451C17.2947 33.2264 20.6403 33.7117 23.9999 33.7117C27.3595 33.7117 30.705 33.2264 33.4202 32.3451C36.5351 31.3341 38.1145 30.0538 38.1145 28.5398V22.3516L25.4131 26.867C24.958 27.0288 24.4826 27.1108 23.9999 27.1108Z" fill="#316BFF"/>
        </g>
    </g>
    <defs>
        <clipPath id="clip0_448:2417">
            <rect width="48" height="48" fill="white"/>
        </clipPath>
        <clipPath id="clip1_448:2417">
            <rect width="48" height="48" fill="white" transform="translate(0 1.5)"/>
        </clipPath>
    </defs>
</svg>
