<svg width="48" height="48" viewBox="0 0 48 48" fill="none" xmlns="http://www.w3.org/2000/svg">
    <path d="M41.071 25.623H37.3589C37.7373 26.659 37.944 27.777 37.944 28.9422V42.9719C37.944 43.4577 37.8594 43.924 37.7056 44.3577H43.8425C46.135 44.3577 48 42.4926 48 40.2003V32.552C48.0001 28.7314 44.8917 25.623 41.071 25.623Z" fill="#316BFF"/>
    <path d="M10.0561 28.9422C10.0561 27.7769 10.2628 26.659 10.6412 25.623H6.92908C3.10838 25.623 0 28.7314 0 32.5521V40.2004C0 42.4927 1.86497 44.3578 4.15745 44.3578H10.2945C10.1407 43.9239 10.0561 43.4577 10.0561 42.9719V28.9422Z" fill="#316BFF"/>
    <path d="M28.2432 22.0137H19.7567C15.936 22.0137 12.8276 25.1221 12.8276 28.9427V42.9725C12.8276 43.7377 13.4481 44.3583 14.2135 44.3583H33.7864C34.5518 44.3583 35.1722 43.7378 35.1722 42.9725V28.9427C35.1722 25.1221 32.0639 22.0137 28.2432 22.0137Z" fill="#316BFF"/>
    <path d="M24.0001 3.64062C19.4052 3.64062 15.667 7.37882 15.667 11.9738C15.667 15.0905 17.3872 17.8126 19.9277 19.2417C21.1326 19.9195 22.5218 20.3069 24.0001 20.3069C25.4783 20.3069 26.8675 19.9195 28.0725 19.2417C30.613 17.8126 32.3331 15.0904 32.3331 11.9738C32.3331 7.37891 28.5949 3.64062 24.0001 3.64062Z" fill="#316BFF"/>
    <path d="M9.3673 11.4082C5.93088 11.4082 3.13525 14.2038 3.13525 17.6402C3.13525 21.0767 5.93088 23.8723 9.3673 23.8723C10.239 23.8723 11.0691 23.6917 11.8231 23.3672C13.1268 22.8059 14.2017 21.8123 14.8669 20.5678C15.3337 19.6943 15.5993 18.6978 15.5993 17.6402C15.5993 14.2039 12.8037 11.4082 9.3673 11.4082Z" fill="#316BFF"/>
    <path d="M38.6324 11.4082C35.196 11.4082 32.4004 14.2038 32.4004 17.6402C32.4004 18.6979 32.666 19.6944 33.1329 20.5678C33.798 21.8124 34.873 22.806 36.1766 23.3672C36.9307 23.6917 37.7607 23.8723 38.6324 23.8723C42.0689 23.8723 44.8645 21.0767 44.8645 17.6402C44.8645 14.2038 42.0689 11.4082 38.6324 11.4082Z" fill="#316BFF"/>
</svg>
