<svg width="48" height="48" viewBox="0 0 48 48" fill="none" xmlns="http://www.w3.org/2000/svg">
    <g clip-path="url(#clip0_418:380)">
        <path d="M45.1865 0C35.5899 0 24.0001 6.89063 24.0001 15.4475C24.0001 15.4976 24.0139 15.6403 24.0203 15.6904C24.0363 16.1762 24.3708 16.5938 24.8417 16.7131C25.3093 16.8335 25.8069 16.6279 26.0518 16.2081C28.9208 11.3139 33.1289 7.55009 38.9191 4.70025C39.455 4.43179 40.1176 4.67039 40.3775 5.19669C40.5064 5.45881 40.5256 5.75489 40.4318 6.03082C40.338 6.30675 40.1431 6.5294 39.8821 6.65724C33.3751 9.86155 29.0032 14.2718 26.5102 20.13C26.4697 20.1897 26.4185 20.2394 26.3896 20.3085C24.8256 24.0798 24.0213 28.5553 23.9999 33.6114C23.6151 32.5975 23.1606 31.6331 22.6716 30.6926C23.5387 29.3624 23.9999 27.9151 23.9999 26.3565C23.9999 17.7997 12.4101 10.909 2.81352 10.909C1.26246 10.9091 0 12.1715 0 13.7227C0 23.3192 6.89063 34.9091 15.4485 34.9091C17.5538 34.9091 19.4617 34.0853 21.1381 32.5078C23.0498 36.5387 23.9999 41.2723 23.9999 46.9092C23.9999 47.5122 24.4879 48.0001 25.0909 48.0001C25.6939 48.0001 26.1818 47.5122 26.1818 46.9092V33.8182C26.1818 29.5488 26.7947 25.7682 27.9383 22.4911C29.3453 23.4869 30.8898 24.0001 32.5525 24.0001C41.1094 24.0001 48 12.4102 48 2.81363C48 1.26246 46.7376 0 45.1865 0Z" fill="#316BFF"/>
    </g>
    <defs>
        <clipPath id="clip0_418:380">
            <rect width="48" height="48" fill="white"/>
        </clipPath>
    </defs>
</svg>
