<svg width="32" height="32" viewBox="0 0 32 32" fill="none" xmlns="http://www.w3.org/2000/svg">
    <g clip-path="url(#clip0_448:2347)">
        <path d="M28.3729 14.5043C28.8279 13.9161 29.1892 13.4441 29.456 13.088C31.3775 10.5333 32.2103 8.90137 31.9551 8.18988L31.855 8.02325C31.7884 7.92317 31.6159 7.83125 31.3385 7.74806C31.0607 7.66492 30.7053 7.65164 30.2723 7.70652L25.474 7.74036C25.3629 7.7293 25.2518 7.73189 25.1407 7.74806C25.0296 7.76495 24.9575 7.7819 24.924 7.79807C24.8905 7.81502 24.8629 7.82861 24.8409 7.83967L24.7743 7.88968C24.7188 7.92281 24.6578 7.98129 24.5912 8.06485C24.5245 8.14835 24.4686 8.24513 24.4245 8.35658C23.9025 9.70045 23.3083 10.9502 22.6418 12.1054C22.2307 12.7941 21.8529 13.3915 21.509 13.8962C21.1646 14.4021 20.8759 14.774 20.6426 15.0124C20.4094 15.2512 20.1982 15.4432 20.0095 15.5871C19.8204 15.732 19.6762 15.7927 19.5765 15.7706C19.4764 15.7486 19.3819 15.7265 19.2932 15.7037C19.1377 15.604 19.0125 15.4682 18.9184 15.2957C18.8239 15.124 18.7602 14.9072 18.7267 14.646C18.6935 14.3852 18.6737 14.1601 18.6685 13.9709C18.6626 13.7823 18.6656 13.5159 18.677 13.1712C18.6881 12.8268 18.6935 12.594 18.6935 12.4714C18.6935 12.0498 18.702 11.5915 18.7187 11.097C18.7352 10.603 18.7492 10.2112 18.7602 9.92232C18.7713 9.6339 18.7767 9.32817 18.7767 9.00591C18.7767 8.68437 18.7573 8.43123 18.7181 8.24771C18.6792 8.06485 18.6207 7.88716 18.5434 7.71464C18.4655 7.54284 18.3517 7.40927 18.2016 7.31513C18.0516 7.22057 17.8657 7.14591 17.6436 7.08995C17.0546 6.95638 16.3049 6.88503 15.3943 6.8733C13.3283 6.85196 12.0009 6.98511 11.4123 7.27353C11.1791 7.39604 10.9679 7.56231 10.7792 7.77349C10.5791 8.01814 10.5515 8.15165 10.6961 8.17299C11.3627 8.27308 11.8344 8.51221 12.1121 8.88965L12.2122 9.0894C12.2898 9.23434 12.3674 9.48969 12.4454 9.85608C12.5231 10.2225 12.5731 10.6279 12.5955 11.0723C12.6511 11.8831 12.6511 12.577 12.5955 13.155C12.54 13.7329 12.4874 14.1825 12.4374 14.504C12.3873 14.8263 12.3123 15.0871 12.2125 15.2869C12.1124 15.4873 12.0459 15.6095 12.0124 15.654C11.9789 15.6981 11.9513 15.726 11.9293 15.7372C11.7847 15.7923 11.635 15.8203 11.4794 15.8203C11.3238 15.8203 11.135 15.7423 10.9128 15.5866C10.6906 15.4318 10.46 15.2177 10.2216 14.9454C9.98243 14.6736 9.71349 14.2928 9.41329 13.8039C9.11345 13.3157 8.80218 12.7377 8.48028 12.0715L8.21393 11.5881C8.04729 11.2776 7.81953 10.8247 7.53075 10.2306C7.24197 9.63643 6.98625 9.06181 6.76444 8.50595C6.67541 8.27308 6.5422 8.09539 6.36457 7.97288L6.28144 7.92287C6.22589 7.87868 6.13686 7.83125 6.01472 7.78154C5.89221 7.73153 5.76495 7.69546 5.63138 7.67304L1.06627 7.70616C0.599801 7.70616 0.28343 7.81214 0.116798 8.02325L0.0501938 8.12298C0.0165309 8.17888 0 8.26791 0 8.3897C0 8.51221 0.0334825 8.66195 0.100087 8.83928C0.766672 10.4057 1.49145 11.9163 2.27429 13.3709C3.05755 14.8263 3.73778 15.9984 4.31534 16.8868C4.8929 17.776 5.48152 18.614 6.08156 19.4028C6.6816 20.1915 7.07852 20.6966 7.27275 20.9184C7.46697 21.141 7.61966 21.3077 7.7308 21.4184L8.14726 21.8186C8.41362 22.085 8.80543 22.4043 9.32198 22.7766C9.83846 23.1489 10.4102 23.5153 11.0382 23.8759C11.6655 24.2372 12.3961 24.5311 13.2289 24.7592C14.0618 24.9872 14.8726 25.0788 15.6614 25.034H17.5774C17.9662 25.0008 18.2604 24.8791 18.4603 24.6675L18.5269 24.5844C18.571 24.5181 18.6129 24.4152 18.6519 24.2764C18.6905 24.1377 18.7105 23.9847 18.7105 23.8184C18.699 23.341 18.7355 22.9098 18.8186 22.5272C18.9018 22.1438 18.9963 21.8554 19.1019 21.6605C19.2075 21.4665 19.3266 21.3025 19.4602 21.1689C19.5934 21.0353 19.6876 20.9555 19.7435 20.9276C19.799 20.9003 19.8436 20.8809 19.8767 20.8691C20.143 20.7803 20.4568 20.8665 20.8181 21.1273C21.179 21.3889 21.5179 21.7104 21.8346 22.0937C22.1509 22.4771 22.5313 22.9071 22.9758 23.385C23.4198 23.8625 23.8086 24.2179 24.1419 24.4511L24.4753 24.6516C24.6974 24.7844 24.9859 24.9066 25.3416 25.0181C25.697 25.1288 26.0082 25.1568 26.2745 25.1012L30.5398 25.0343C30.9618 25.0343 31.2896 24.9651 31.5229 24.826C31.7561 24.6881 31.8949 24.5343 31.9393 24.368C31.9835 24.2014 31.9864 24.0134 31.9478 23.8018C31.9089 23.591 31.8699 23.4439 31.8313 23.3607C31.7923 23.2776 31.7561 23.2077 31.7226 23.1525C31.1672 22.153 30.1065 20.9253 28.5404 19.4703L28.5069 19.4372L28.4904 19.4203L28.4739 19.4041H28.4572C27.746 18.7264 27.2965 18.271 27.1077 18.0374C26.7634 17.5937 26.6854 17.1438 26.8745 16.6884C27.007 16.343 27.5065 15.6154 28.3729 14.5043Z"
              fill="white"/>
    </g>
    <defs>
        <clipPath id="clip0_448:2347">
            <rect width="32" height="32" fill="white"/>
        </clipPath>
    </defs>
</svg>
