<svg width="1711" height="639" viewBox="0 0 1711 639" fill="none" xmlns="http://www.w3.org/2000/svg">
<path d="M193.578 505.855C163.504 505.855 136.475 499.003 112.492 485.298C88.5089 471.213 69.4747 452.179 55.3894 428.196C41.6848 404.213 34.8325 376.994 34.8325 346.539C34.8325 316.465 41.4945 289.437 54.8184 265.454C68.523 241.47 86.9862 222.627 110.208 208.922C133.43 194.837 159.697 187.794 189.009 187.794C214.515 187.794 237.547 193.314 258.103 204.354C278.66 215.013 295.22 229.289 307.783 247.181V79.2993C307.783 72.447 309.876 67.1174 314.064 63.3106C318.251 59.1231 323.581 57.0293 330.053 57.0293C336.524 57.0293 341.854 59.1231 346.041 63.3106C350.229 67.1174 352.323 72.447 352.323 79.2993V348.823C351.561 378.517 344.138 405.355 330.053 429.338C316.348 452.94 297.504 471.594 273.521 485.298C249.919 499.003 223.271 505.855 193.578 505.855ZM193.578 465.883C215.657 465.883 235.262 460.744 252.393 450.466C269.905 439.807 283.609 425.531 293.507 407.639C303.785 389.747 308.925 369.38 308.925 346.539C308.925 324.079 303.785 303.903 293.507 286.01C283.609 267.738 269.905 253.462 252.393 243.184C235.262 232.905 215.657 227.766 193.578 227.766C171.879 227.766 152.273 232.905 134.762 243.184C117.251 253.462 103.356 267.738 93.0771 286.01C82.7987 303.903 77.6594 324.079 77.6594 346.539C77.6594 369.38 82.7987 389.747 93.0771 407.639C103.356 425.531 117.251 439.807 134.762 450.466C152.273 460.744 171.879 465.883 193.578 465.883ZM486.531 503C479.679 503 474.159 501.097 469.972 497.29C466.165 493.102 464.261 487.582 464.261 480.73V212.919C464.261 206.067 466.165 200.737 469.972 196.93C474.159 192.743 479.679 190.649 486.531 190.649C493.003 190.649 498.142 192.743 501.949 196.93C506.137 200.737 508.23 206.067 508.23 212.919V480.73C508.23 487.582 506.137 493.102 501.949 497.29C498.142 501.097 493.003 503 486.531 503ZM485.96 131.263C477.585 131.263 470.352 128.217 464.261 122.126C458.17 116.035 455.125 108.612 455.125 99.8562C455.125 90.3391 458.17 82.9158 464.261 77.5862C470.733 71.8759 478.156 69.0208 486.531 69.0208C494.526 69.0208 501.568 71.8759 507.659 77.5862C514.131 82.9158 517.367 90.3391 517.367 99.8562C517.367 108.612 514.321 116.035 508.23 122.126C502.139 128.217 494.716 131.263 485.96 131.263ZM757.804 505.855C727.73 505.855 701.082 499.193 677.861 485.869C654.639 472.165 636.366 453.321 623.042 429.338C610.099 405.355 603.627 377.945 603.627 347.11C603.627 315.894 610.48 288.295 624.184 264.311C637.889 240.328 656.733 221.675 680.716 208.351C704.699 194.646 731.918 187.794 762.372 187.794C793.208 187.794 820.426 194.646 844.029 208.351C868.012 221.675 886.665 240.328 899.989 264.311C913.694 288.295 920.737 315.894 921.117 347.11L895.421 360.815C895.421 388.985 889.521 414.11 877.719 436.19C865.918 457.889 849.549 475.02 828.611 487.582C808.054 499.764 784.452 505.855 757.804 505.855ZM763.514 626.341C733.44 626.341 706.983 620.631 684.142 609.211C661.301 598.171 642.457 582.944 627.61 563.529C623.423 558.96 621.519 554.012 621.9 548.682C622.661 543.352 625.517 538.975 630.465 535.548C635.414 532.122 640.934 530.98 647.025 532.122C653.116 533.264 657.875 536.119 661.301 540.688C672.341 554.392 686.426 565.432 703.557 573.807C721.068 582.182 741.244 586.37 764.085 586.37C785.404 586.37 804.628 581.23 821.759 570.952C838.89 560.674 852.404 546.208 862.302 527.554C872.58 508.901 877.719 487.011 877.719 461.886V375.09L894.279 341.971L921.117 347.11V463.599C921.117 494.435 914.265 522.034 900.56 546.398C886.856 571.142 868.202 590.557 844.6 604.642C820.997 619.108 793.969 626.341 763.514 626.341ZM762.372 465.883C784.833 465.883 804.628 460.934 821.759 451.037C839.27 440.758 852.975 426.673 862.873 408.781C872.77 390.889 877.719 370.332 877.719 347.11C877.719 323.888 872.77 303.332 862.873 285.439C852.975 267.167 839.27 253.081 821.759 243.184C804.628 232.905 784.833 227.766 762.372 227.766C739.912 227.766 719.926 232.905 702.415 243.184C684.903 253.081 671.199 267.167 661.301 285.439C651.403 303.332 646.454 323.888 646.454 347.11C646.454 370.332 651.403 390.889 661.301 408.781C671.199 426.673 684.903 440.758 702.415 451.037C719.926 460.934 739.912 465.883 762.372 465.883ZM1038.04 503C1031.19 503 1025.67 501.097 1021.48 497.29C1017.67 493.102 1015.77 487.582 1015.77 480.73V212.919C1015.77 206.067 1017.67 200.737 1021.48 196.93C1025.67 192.743 1031.19 190.649 1038.04 190.649C1044.51 190.649 1049.65 192.743 1053.46 196.93C1057.64 200.737 1059.74 206.067 1059.74 212.919V480.73C1059.74 487.582 1057.64 493.102 1053.46 497.29C1049.65 501.097 1044.51 503 1038.04 503ZM1037.47 131.263C1029.09 131.263 1021.86 128.217 1015.77 122.126C1009.68 116.035 1006.63 108.612 1006.63 99.8562C1006.63 90.3391 1009.68 82.9158 1015.77 77.5862C1022.24 71.8759 1029.66 69.0208 1038.04 69.0208C1046.03 69.0208 1053.08 71.8759 1059.17 77.5862C1065.64 82.9158 1068.87 90.3391 1068.87 99.8562C1068.87 108.612 1065.83 116.035 1059.74 122.126C1053.65 128.217 1046.22 131.263 1037.47 131.263Z" fill="#0D39E5"/>
<path fill-rule="evenodd" clip-rule="evenodd" d="M1246.53 62.5718C1193.97 62.5718 1151.36 105.181 1151.36 157.743V526.394C1151.36 578.956 1193.97 621.565 1246.53 621.565H1615.18C1667.74 621.565 1710.35 578.956 1710.35 526.394V157.743C1710.35 105.181 1667.74 62.5718 1615.18 62.5718H1246.53ZM1346.71 489.293C1367.65 500.333 1391.25 505.853 1417.52 505.853C1436.93 505.853 1455.02 502.427 1471.77 495.575C1488.52 488.722 1502.79 479.396 1514.59 467.594V473.876C1514.59 482.251 1517.26 489.293 1522.59 495.004C1528.3 500.333 1535.34 502.998 1543.72 502.998C1552.47 502.998 1559.51 500.333 1564.84 495.004C1570.17 489.293 1572.84 482.251 1572.84 473.876V219.199C1572.84 210.443 1570.17 203.4 1564.84 198.071C1559.51 192.741 1552.47 190.076 1543.72 190.076C1535.34 190.076 1528.3 192.741 1522.59 198.071C1517.26 203.4 1514.59 210.443 1514.59 219.199V380.228C1514.59 393.932 1510.79 406.304 1503.17 417.344C1495.56 428.384 1485.28 437.14 1472.34 443.611C1459.77 450.083 1445.31 453.319 1428.94 453.319C1403.05 453.319 1381.35 445.896 1363.84 431.049C1346.71 415.822 1338.15 392.029 1338.15 359.671V219.199C1338.15 210.823 1335.29 203.971 1329.58 198.642C1324.25 192.931 1317.4 190.076 1309.02 190.076C1300.65 190.076 1293.61 192.931 1287.9 198.642C1282.57 203.971 1279.9 210.823 1279.9 219.199V359.671C1279.9 391.267 1285.8 417.915 1297.6 439.614C1309.79 461.313 1326.16 477.873 1346.71 489.293Z" fill="#0D39E5"/>
</svg>
