<svg width="751" height="910" viewBox="0 0 751 910" fill="none" xmlns="http://www.w3.org/2000/svg">
<rect y="98" width="751" height="751" rx="95.1709" fill="#0D39E5"/>
<g filter="url(#filter0_i)">
<path d="M355.491 721.07C318.045 721.07 284.399 713.201 254.551 697.463C225.245 681.183 201.91 657.576 184.544 626.642C167.72 595.709 159.309 557.721 159.309 512.677V312.425C159.309 300.486 163.108 290.718 170.705 283.12C178.845 274.98 188.885 270.909 200.824 270.909C212.764 270.909 222.532 274.98 230.13 283.12C238.27 290.718 242.34 300.486 242.34 312.425V512.677C242.34 558.806 254.551 592.724 278.972 614.432C303.935 635.597 334.869 646.179 371.772 646.179C395.107 646.179 415.729 641.566 433.638 632.34C452.09 623.115 466.742 610.633 477.596 594.895C488.45 579.157 493.877 561.52 493.877 541.983V312.425C493.877 299.943 497.675 289.904 505.273 282.306C513.413 274.708 523.453 270.909 535.392 270.909C547.874 270.909 557.914 274.708 565.512 282.306C573.109 289.904 576.908 299.943 576.908 312.425V675.484C576.908 687.423 573.109 697.463 565.512 705.604C557.914 713.201 547.874 717 535.392 717C523.453 717 513.413 713.201 505.273 705.604C497.675 697.463 493.877 687.423 493.877 675.484V666.53C477.053 683.353 456.702 696.649 432.824 706.418C408.946 716.186 383.168 721.07 355.491 721.07Z" fill="white"/>
</g>
<defs>
<filter id="filter0_i" x="159.309" y="270.909" width="417.599" height="473.948" filterUnits="userSpaceOnUse" color-interpolation-filters="sRGB">
<feFlood flood-opacity="0" result="BackgroundImageFix"/>
<feBlend mode="normal" in="SourceGraphic" in2="BackgroundImageFix" result="shape"/>
<feColorMatrix in="SourceAlpha" type="matrix" values="0 0 0 0 0 0 0 0 0 0 0 0 0 0 0 0 0 0 127 0" result="hardAlpha"/>
<feOffset dy="23.7875"/>
<feGaussianBlur stdDeviation="26.761"/>
<feComposite in2="hardAlpha" operator="arithmetic" k2="-1" k3="1"/>
<feColorMatrix type="matrix" values="0 0 0 0 0 0 0 0 0 0 0 0 0 0 0 0 0 0 0.25 0"/>
<feBlend mode="normal" in2="shape" result="effect1_innerShadow"/>
</filter>
</defs>
</svg>
