<?xml version="1.0" encoding="UTF-8"?>
<svg width="20px" height="20px" viewBox="0 0 20 20" version="1.1" xmlns="http://www.w3.org/2000/svg" xmlns:xlink="http://www.w3.org/1999/xlink">
    <!-- Generator: Sketch 51.3 (57544) - http://www.bohemiancoding.com/sketch -->
    <title>facebook (4)</title>
    <desc>Created with Sketch.</desc>
    <defs></defs>
    <g id="Page-1" stroke="none" stroke-width="1" fill="none" fill-rule="evenodd">
        <g id="Trendo_main_submenu2" transform="translate(-26.000000, -606.000000)" fill="#273645" fill-rule="nonzero">
            <g id="facebook-(4)" transform="translate(26.000000, 606.000000)">
                <path d="M17.5,0 L2.5,0 C1.12125,0 0,1.12125 0,2.5 L0,17.5 C0,18.87875 1.12125,20 2.5,20 L10,20 L10,13.125 L7.5,13.125 L7.5,10 L10,10 L10,7.5 C10,5.42875 11.67875,3.75 13.75,3.75 L16.25,3.75 L16.25,6.875 L15,6.875 C14.31,6.875 13.75,6.81 13.75,7.5 L13.75,10 L16.875,10 L15.625,13.125 L13.75,13.125 L13.75,20 L17.5,20 C18.87875,20 20,18.87875 20,17.5 L20,2.5 C20,1.12125 18.87875,0 17.5,0 Z" id="Shape"></path>
            </g>
        </g>
    </g>
</svg>