<?xml version="1.0" encoding="UTF-8"?>
<svg width="16px" height="16px" viewBox="0 0 16 16" version="1.1" xmlns="http://www.w3.org/2000/svg" xmlns:xlink="http://www.w3.org/1999/xlink">
    <!-- Generator: Sketch 51.3 (57544) - http://www.bohemiancoding.com/sketch -->
    <title>paste</title>
    <desc>Created with Sketch.</desc>
    <defs></defs>
    <g id="Page-1" stroke="none" stroke-width="1" fill="none" fill-rule="evenodd">
        <g id="Trendo_creat_hoax_step1" transform="translate(-331.000000, -223.000000)" fill="#A9AFB5" fill-rule="nonzero">
            <g id="paste" transform="translate(331.000000, 223.000000)">
                <path d="M11.52,0 L0.64,0 C0.28671875,0 0,0.28671875 0,0.64 L0,11.52 C0,11.8732812 0.28671875,12.16 0.64,12.16 L11.52,12.16 C11.8732812,12.16 12.16,11.8732812 12.16,11.52 L12.16,0.64 C12.16,0.28671875 11.8732812,0 11.52,0 Z M10.88,10.88 L1.28,10.88 L1.28,1.28 L10.88,1.28 L10.88,10.88 Z" id="Shape"></path>
                <path d="M14.6,13 L14.6,14.6 L13,14.6 L13,15.88 L15.24,15.88 C15.5932813,15.88 15.88,15.5932812 15.88,15.24 L15.88,13 L14.6,13 Z" id="Shape"></path>
                <rect id="Rectangle-path" x="8" y="15" width="3" height="1"></rect>
                <path d="M5.28,14.6 L5.28,13 L4,13 L4,15.24 C4,15.5932813 4.28671875,15.88 4.64,15.88 L6.88,15.88 L6.88,14.6 L5.28,14.6 Z" id="Shape"></path>
                <path d="M15.24,4 L13,4 L13,5.28 L14.6,5.28 L14.6,6.88 L15.88,6.88 L15.88,4.64 C15.88,4.28671875 15.5932812,4 15.24,4 Z" id="Shape"></path>
                <rect id="Rectangle-path" x="15" y="8" width="1" height="3"></rect>
            </g>
        </g>
    </g>
</svg>