<?xml version="1.0" encoding="UTF-8"?>
<svg width="20px" height="20px" viewBox="0 0 20 20" version="1.1" xmlns="http://www.w3.org/2000/svg" xmlns:xlink="http://www.w3.org/1999/xlink">
    <!-- Generator: Sketch 51.3 (57544) - http://www.bohemiancoding.com/sketch -->
    <title>Shape Copy</title>
    <desc>Created with Sketch.</desc>
    <defs></defs>
    <g id="Page-1" stroke="none" stroke-width="1" fill="none" fill-rule="evenodd" opacity="0.4">
        <g id="Trendo_creat_hoax_step1" transform="translate(-341.000000, -183.000000)" fill="#A9AFB5" fill-rule="nonzero">
            <path d="M358.071544,185.928782 C354.166284,182.023957 347.834476,182.023522 343.928782,185.928782 C340.023522,189.834042 340.023957,196.16585 343.928782,200.071544 C347.834042,203.975935 354.16585,203.976369 358.071544,200.071544 C361.976369,196.16585 361.975935,189.834476 358.071544,185.928782 Z M352.30409,197.348036 C352.30409,198.068479 351.720171,198.652398 350.999728,198.652398 C350.279286,198.652398 349.695366,198.068479 349.695366,197.348036 L349.695366,192.130588 C349.695366,191.410146 350.279286,190.826226 350.999728,190.826226 C351.720171,190.826226 352.30409,191.410146 352.30409,192.130588 L352.30409,197.348036 Z M350.976685,189.900999 C350.225372,189.900999 349.724497,189.368819 349.740149,188.711856 C349.724497,188.023152 350.225372,187.50706 350.991902,187.50706 C351.758867,187.50706 352.24409,188.023587 352.260177,188.711856 C352.259742,189.368819 351.759302,189.900999 350.976685,189.900999 Z" id="Shape-Copy"></path>
        </g>
    </g>
</svg>