<?xml version="1.0" encoding="UTF-8"?>
<svg width="20px" height="20px" viewBox="0 0 20 20" version="1.1" xmlns="http://www.w3.org/2000/svg" xmlns:xlink="http://www.w3.org/1999/xlink">
    <!-- Generator: Sketch 51.3 (57544) - http://www.bohemiancoding.com/sketch -->
    <title>link (1)</title>
    <desc>Created with Sketch.</desc>
    <defs></defs>
    <g id="Page-1" stroke="none" stroke-width="1" fill="none" fill-rule="evenodd">
        <g id="Trendo_main_submenu2" transform="translate(-25.000000, -756.000000)" fill="#273645" fill-rule="nonzero">
            <g id="link-(1)" transform="translate(25.000000, 756.000000)">
                <path d="M12.179884,7.36402364 C11.9433928,7.1261289 11.6811706,6.91525171 11.3980906,6.73525171 C10.6483051,6.25513475 9.77664814,6.00000805 8.88631675,6.00000805 C7.65056627,5.99770785 6.4650302,6.488702 5.5927495,7.36402364 L1.36101461,11.5990724 C0.490215389,12.471548 0.000780691393,13.6536533 9.64297253e-07,14.8863238 C-0.0016364626,17.4586435 2.08226217,19.5452322 4.65458186,19.5468696 C5.88842202,19.5511581 7.07286646,19.0625032 7.94483527,18.1895207 L11.4380127,14.6963433 C11.5014824,14.6334194 11.536921,14.5475714 11.5364142,14.4582147 C11.5353616,14.274472 11.385537,14.1264018 11.2017943,14.1274544 L11.0687339,14.1274544 C10.3389093,14.1300275 9.61559551,13.9898716 8.93957211,13.7149398 C8.81501071,13.6636728 8.67185282,13.6926006 8.57696003,13.7881172 L6.06518615,16.3032049 C5.28522514,17.0831659 4.02066373,17.0831659 3.24070272,16.3032049 C2.46074171,15.5232439 2.46074171,14.2586825 3.24070272,13.4787215 L7.48908478,9.23369226 C8.26842202,8.45532968 9.53091714,8.45532968 10.3102544,9.23369226 C10.8354785,9.72800025 11.6547378,9.72800025 12.179923,9.23369226 C12.4058879,9.00753241 12.542886,8.7075714 12.5658489,8.38866302 C12.5901374,8.0075714 12.4495916,7.63435502 12.179884,7.36402364 Z" id="Shape"></path>
                <path d="M18.2108938,1.36423977 C16.3919075,-0.454746589 13.4427457,-0.454746589 11.6237593,1.36423977 L8.13389579,4.85075049 C8.03806733,4.94704678 8.010426,5.09188109 8.06403224,5.2167154 C8.1170147,5.34190058 8.24083536,5.42225146 8.37674179,5.41963938 L8.49982171,5.41963938 C9.22878857,5.41831384 9.95093282,5.5595614 10.6256697,5.83550682 C10.7502311,5.88677388 10.893389,5.857846 10.9882818,5.76232943 L13.493389,3.26053606 C14.27335,2.48057505 15.5379114,2.48057505 16.3178724,3.26053606 C17.0978334,4.04049708 17.0978334,5.30505848 16.3178724,6.08501949 L13.1972876,9.20225146 L13.1706599,9.23219298 L12.0794708,10.3167544 C11.3001336,11.095117 10.0376385,11.095117 9.25830124,10.3167544 C8.73307707,9.82244639 7.91381781,9.82244639 7.38863263,10.3167544 C7.16122522,10.5446296 7.02411021,10.8472027 7.0027067,11.1684113 C6.97837922,11.5495029 7.11892503,11.9227193 7.38863263,12.1930897 C7.77370086,12.5797953 8.22422717,12.8951559 8.71935388,13.1245906 C8.78921742,13.157846 8.85908097,13.1844737 8.92894452,13.2144152 C8.99880807,13.2443567 9.07198546,13.2676316 9.141849,13.2942593 C9.21171255,13.3208869 9.28488994,13.3441618 9.35475349,13.3641228 L9.55104978,13.4173392 C9.68411021,13.4505945 9.81720963,13.4772222 9.9535839,13.5004971 C10.1178724,13.5249025 10.2833305,13.5404581 10.4492954,13.5470858 L10.6821609,13.5470858 L10.7021219,13.5470858 L10.901732,13.5238109 C10.9749094,13.5204971 11.0514396,13.5038499 11.1379504,13.5038499 L11.2510498,13.5038499 L11.4806014,13.4705945 L11.5870732,13.4506335 L11.7800166,13.4107115 L11.8166248,13.4107115 C12.6338178,13.2054483 13.3800166,12.7823294 13.9757281,12.186423 L18.2107769,7.95137427 C20.0298802,6.13238791 20.0298802,3.18322612 18.2108938,1.36423977 Z" id="Shape"></path>
            </g>
        </g>
    </g>
</svg>