<?xml version="1.0" encoding="UTF-8"?>
<svg width="15px" height="15px" viewBox="0 0 15 15" version="1.1" xmlns="http://www.w3.org/2000/svg" xmlns:xlink="http://www.w3.org/1999/xlink">
    <!-- Generator: Sketch 51.3 (57544) - http://www.bohemiancoding.com/sketch -->
    <title>plus</title>
    <desc>Created with Sketch.</desc>
    <defs></defs>
    <g id="plus" stroke="none" stroke-width="1" fill="none" fill-rule="evenodd">
        <g id="plus-symbol" fill="#A9AFB5" fill-rule="nonzero">
            <path d="M0.52453125,7.89421875 C0.234375,7.89421875 0.00375,7.65609375 0.00375,7.3659375 C0.00375,7.07578125 0.234375,6.84515625 0.52453125,6.84515625 L6.8409375,6.84515625 L6.8409375,0.52828125 C6.84140625,0.238125 7.07953125,0 7.3696875,0 C7.65984375,0 7.89046875,0.238125 7.89046875,0.52828125 L7.89046875,6.84515625 L14.206875,6.84515625 C14.4970312,6.84515625 14.7351562,7.07578125 14.7351562,7.3659375 C14.7351562,7.65609375 14.4970312,7.89421875 14.206875,7.89421875 L7.89046875,7.89421875 L7.89046875,14.2110937 C7.89046875,14.50125 7.65984375,14.739375 7.3696875,14.739375 C7.07953125,14.739375 6.84140625,14.50125 6.84140625,14.2110937 L6.84140625,7.89421875 L0.52453125,7.89421875 Z" id="Shape"></path>
        </g>
    </g>
</svg>