<?xml version="1.0" encoding="UTF-8"?>
<svg width="20px" height="18px" viewBox="0 0 20 18" version="1.1" xmlns="http://www.w3.org/2000/svg" xmlns:xlink="http://www.w3.org/1999/xlink">
    <!-- Generator: Sketch 51.3 (57544) - http://www.bohemiancoding.com/sketch -->
    <title>telegram (2)</title>
    <desc>Created with Sketch.</desc>
    <defs></defs>
    <g id="Page-1" stroke="none" stroke-width="1" fill="none" fill-rule="evenodd">
        <g id="Trendo_main_submenu2" transform="translate(-25.000000, -707.000000)" fill="#273645" fill-rule="nonzero">
            <g id="telegram-(2)" transform="translate(25.000000, 707.000000)">
                <path d="M0.353266667,8.37633333 L4.96166667,10.0963333 L6.7454,15.8328 C6.85953333,16.2002 7.3088,16.336 7.607,16.0922 L10.1758,13.9980667 C10.4450667,13.7786667 10.8286,13.7677333 11.11,13.972 L15.7432,17.3358 C16.0622,17.5676667 16.5141333,17.3928667 16.5941333,17.0074 L19.9882,0.681333333 C20.0755333,0.260266667 19.6618,-0.091 19.2608667,0.0640666667 L0.347866667,7.36013333 C-0.118866667,7.54013333 -0.1148,8.20093333 0.353266667,8.37633333 Z M6.45793333,9.18073333 L15.4644667,3.6336 C15.6263333,3.5342 15.7928667,3.75306667 15.6538667,3.882 L8.22086667,10.7913333 C7.9596,11.0345333 7.79106667,11.36 7.74333333,11.7132667 L7.49013333,13.5896667 C7.4566,13.8402 7.10466667,13.8650667 7.03553333,13.6226 L6.06173333,10.2009333 C5.9502,9.81066667 6.11273333,9.3938 6.45793333,9.18073333 Z" id="XMLID_497_"></path>
            </g>
        </g>
    </g>
</svg>