<?xml version="1.0" encoding="UTF-8"?>
<svg width="20px" height="17px" viewBox="0 0 20 17" version="1.1" xmlns="http://www.w3.org/2000/svg" xmlns:xlink="http://www.w3.org/1999/xlink">
    <!-- Generator: Sketch 51.3 (57544) - http://www.bohemiancoding.com/sketch -->
    <title>Path</title>
    <desc>Created with Sketch.</desc>
    <defs></defs>
    <g id="Page-1" stroke="none" stroke-width="1" fill="none" fill-rule="evenodd">
        <g id="Trendo_main_submenu2" transform="translate(-26.000000, -522.000000)" fill="#273645">
            <path d="M43.9546842,526.046106 C43.9625839,526.222773 43.9668929,526.400876 43.9668929,526.578979 C43.9668929,532.001795 39.8403533,538.252648 32.2903515,538.252648 C29.9728536,538.252648 27.815505,537.575425 26,536.410571 C26.3210169,536.448634 26.6477791,536.468024 26.9788502,536.468024 C28.9020791,536.468024 30.6709038,535.811627 32.0756221,534.711408 C30.2802255,534.678373 28.7641926,533.491975 28.2420913,531.861036 C28.4920105,531.908435 28.7498294,531.935007 29.0133937,531.935007 C29.3875543,531.935007 29.7509426,531.886172 30.0949406,531.792093 C28.2176739,531.415778 26.8036195,529.75755 26.8036195,527.76825 C26.8036195,527.751014 26.8036195,527.73306 26.8043377,527.716543 C27.3573198,528.023197 27.9900176,528.208481 28.6622141,528.229308 C27.561995,527.494632 26.837373,526.237854 26.837373,524.814464 C26.837373,524.061833 27.0391756,523.356602 27.3925096,522.750476 C29.4155625,525.233868 32.4404467,526.866961 35.8502639,527.039319 C35.7798844,526.738411 35.7446946,526.426012 35.7446946,526.103558 C35.7446946,523.837768 37.5817444,522 39.8475349,522 C41.0281877,522 42.093217,522.498402 42.8429746,523.295558 C43.7787353,523.11171 44.6548889,522.771302 45.4498905,522.299472 C45.1410823,523.258214 44.492585,524.061833 43.6430033,524.57029 C44.4739129,524.471184 45.26676,524.251427 46,523.924665 C45.4527631,524.746239 44.7568674,525.469424 43.9546842,526.046106 Z" id="Path"></path>
        </g>
    </g>
</svg>