<?xml version="1.0" encoding="UTF-8"?>
<svg width="20px" height="12px" viewBox="0 0 20 12" version="1.1" xmlns="http://www.w3.org/2000/svg" xmlns:xlink="http://www.w3.org/1999/xlink">
    <!-- Generator: Sketch 51.3 (57544) - http://www.bohemiancoding.com/sketch -->
    <title>vk (3)</title>
    <desc>Created with Sketch.</desc>
    <defs></defs>
    <g id="Page-1" stroke="none" stroke-width="1" fill="none" fill-rule="evenodd">
        <g id="Trendo_main_submenu2" transform="translate(-26.000000, -560.000000)" fill="#273645" fill-rule="nonzero">
            <g id="vk-(3)" transform="translate(26.000000, 560.333984)">
                <path d="M19.8202734,10.2137109 C19.7665234,10.1237109 19.4340234,9.40121094 17.8340234,7.91621094 C16.1590234,6.36121094 16.3840234,6.61371094 18.4015234,3.92496094 C19.6302734,2.28746094 20.1215234,1.28746094 19.9677734,0.859960938 C19.8215234,0.452460938 18.9177734,0.559960938 18.9177734,0.559960938 L15.9127734,0.577460938 C15.9127734,0.577460938 15.6902734,0.547460938 15.5240234,0.646210938 C15.3627734,0.743710938 15.2590234,0.968710938 15.2590234,0.968710938 C15.2590234,0.968710938 14.7827734,2.23621094 14.1477734,3.31371094 C12.8090234,5.58746094 12.2727734,5.70746094 12.0540234,5.56621094 C11.5452734,5.23746094 11.6727734,4.24371094 11.6727734,3.53871094 C11.6727734,1.33496094 12.0065234,0.416210938 11.0215234,0.178710938 C10.6940234,0.0999609375 10.4540234,0.0474609375 9.61777344,0.0387109375 C8.54527344,0.0274609375 7.63652344,0.0424609375 7.12277344,0.293710938 C6.78027344,0.461210938 6.51652344,0.834960938 6.67777344,0.856210938 C6.87652344,0.882460938 7.32652344,0.977460938 7.56527344,1.30246094 C7.87402344,1.72121094 7.86277344,2.66371094 7.86277344,2.66371094 C7.86277344,2.66371094 8.04027344,5.25746094 7.44902344,5.57996094 C7.04277344,5.80121094 6.48652344,5.34996094 5.29277344,3.28621094 C4.68152344,2.22996094 4.21902344,1.06121094 4.21902344,1.06121094 C4.21902344,1.06121094 4.13027344,0.843710938 3.97152344,0.727460938 C3.77902344,0.586210938 3.50902344,0.541210938 3.50902344,0.541210938 L0.651523437,0.558710938 C0.651523437,0.558710938 0.222773437,0.571210938 0.0652734375,0.757460938 C-0.0747265625,0.923710938 0.0540234375,1.26621094 0.0540234375,1.26621094 C0.0540234375,1.26621094 2.29152344,6.49996094 4.82402344,9.13871094 C7.14777344,11.5574609 9.78527344,11.3987109 9.78527344,11.3987109 L10.9802734,11.3987109 C10.9802734,11.3987109 11.3415234,11.3587109 11.5252734,11.1599609 C11.6952734,10.9774609 11.6890234,10.6349609 11.6890234,10.6349609 C11.6890234,10.6349609 11.6652734,9.03121094 12.4102734,8.79496094 C13.1440234,8.56246094 14.0865234,10.3449609 15.0852734,11.0312109 C15.8402734,11.5499609 16.4140234,11.4362109 16.4140234,11.4362109 L19.0852734,11.3987109 C19.0852734,11.3987109 20.4827734,11.3124609 19.8202734,10.2137109 Z" id="Shape"></path>
            </g>
        </g>
    </g>
</svg>