<?xml version="1.0" encoding="UTF-8"?>
<svg width="20px" height="20px" viewBox="0 0 20 20" version="1.1" xmlns="http://www.w3.org/2000/svg" xmlns:xlink="http://www.w3.org/1999/xlink">
    <!-- Generator: Sketch 51.3 (57544) - http://www.bohemiancoding.com/sketch -->
    <title>whatsapp</title>
    <desc>Created with Sketch.</desc>
    <defs></defs>
    <g id="Page-1" stroke="none" stroke-width="1" fill="none" fill-rule="evenodd">
        <g id="Trendo_main_submenu2" transform="translate(-26.000000, -656.000000)" fill="#273645" fill-rule="nonzero">
            <g id="whatsapp" transform="translate(26.000000, 656.000000)">
                <path d="M10.0025,0 L9.9975,0 C4.48375,0 0,4.485 0,10 C0,12.1875 0.705,14.215 1.90375,15.86125 L0.6575,19.57625 L4.50125,18.3475 C6.0825,19.395 7.96875,20 10.0025,20 C15.51625,20 20,15.51375 20,10 C20,4.48625 15.51625,0 10.0025,0 Z M15.82125,14.12125 C15.58,14.8025 14.6225,15.3675 13.85875,15.5325 C13.33625,15.64375 12.65375,15.7325 10.35625,14.78 C7.4175,13.5625 5.525,10.57625 5.3775,10.3825 C5.23625,10.18875 4.19,8.80125 4.19,7.36625 C4.19,5.93125 4.91875,5.2325 5.2125,4.9325 C5.45375,4.68625 5.8525,4.57375 6.235,4.57375 C6.35875,4.57375 6.47,4.58 6.57,4.585 C6.86375,4.5975 7.01125,4.615 7.205,5.07875 C7.44625,5.66 8.03375,7.095 8.10375,7.2425 C8.175,7.39 8.24625,7.59 8.14625,7.78375 C8.0525,7.98375 7.97,8.0725 7.8225,8.2425 C7.675,8.4125 7.535,8.5425 7.3875,8.725 C7.2525,8.88375 7.1,9.05375 7.27,9.3475 C7.44,9.635 8.0275,10.59375 8.8925,11.36375 C10.00875,12.3575 10.91375,12.675 11.2375,12.81 C11.47875,12.91 11.76625,12.88625 11.9425,12.69875 C12.16625,12.4575 12.4425,12.0575 12.72375,11.66375 C12.92375,11.38125 13.17625,11.34625 13.44125,11.44625 C13.71125,11.54 15.14,12.24625 15.43375,12.3925 C15.7275,12.54 15.92125,12.61 15.9925,12.73375 C16.0625,12.8575 16.0625,13.43875 15.82125,14.12125 Z" id="Shape"></path>
            </g>
        </g>
    </g>
</svg>